<svg width="24" height="24" viewBox="0 0 24 24" fill="none" xmlns="http://www.w3.org/2000/svg">
  <circle cx="12" cy="12" r="10" fill="url(#gradient)" />
  <path d="M8 10C8 8.89543 8.89543 8 10 8C11.1046 8 12 8.89543 12 10C12 11.1046 11.1046 12 10 12C8.89543 12 8 11.1046 8 10Z" fill="white" />
  <path d="M12 10C12 8.89543 12.8954 8 14 8C15.1046 8 16 8.89543 16 10C16 11.1046 15.1046 12 14 12C12.8954 12 12 11.1046 12 10Z" fill="white" />
  <path d="M8 14C8 13.4477 8.44772 13 9 13H15C15.5523 13 16 13.4477 16 14V15C16 16.6569 14.6569 18 13 18H11C9.34315 18 8 16.6569 8 15V14Z" fill="white" />
  <defs>
    <linearGradient id="gradient" x1="2" y1="2" x2="22" y2="22" gradientUnits="userSpaceOnUse">
      <stop stop-color="#667eea" />
      <stop offset="1" stop-color="#764ba2" />
    </linearGradient>
  </defs>
</svg>
